<svg width="39" height="38" viewBox="0 0 39 38" fill="none" xmlns="http://www.w3.org/2000/svg">
<path d="M19.0184 0C8.51461 0 0 8.38099 0 18.7199C0 29.0588 8.51461 37.4398 19.0184 37.4398C29.5221 37.4398 38.0367 29.0588 38.0367 18.7199C38.0357 8.38099 29.5211 0 19.0184 0ZM24.6526 17.267L24.3358 19.7714C24.2822 20.1897 23.9223 20.5044 23.4953 20.5044H19.3744V30.9753C18.9399 31.0139 18.4995 31.0337 18.0544 31.0337C17.0589 31.0337 16.0873 30.9357 15.1482 30.7491V20.5044H11.9788C11.6878 20.5044 11.4504 20.2698 11.4504 19.9825V16.8487C11.4504 16.5613 11.6878 16.3267 11.9788 16.3267H15.1482V11.6269C15.1482 8.7428 17.5136 6.40517 20.4322 6.40517H24.13C24.421 6.40517 24.6584 6.63978 24.6584 6.92715V10.061C24.6584 10.3483 24.421 10.5829 24.13 10.5829H21.488C20.3211 10.5829 19.3754 11.5176 19.3754 12.6718V16.3276H23.8131C24.3224 16.3276 24.7158 16.7686 24.6536 17.2679L24.6526 17.267Z" fill="white"/>
</svg>
