<svg width="39" height="38" viewBox="0 0 39 38" fill="none" xmlns="http://www.w3.org/2000/svg">
<path d="M19.0274 15.3336C17.1321 15.3336 15.5871 16.8544 15.5871 18.72C15.5871 20.5855 17.1321 22.1063 19.0274 22.1063C20.9227 22.1063 22.4677 20.5855 22.4677 18.72C22.4677 16.8544 20.9227 15.3336 19.0274 15.3336Z" fill="white"/>
<path d="M19.0184 0C8.51461 0 0 8.38099 0 18.7199C0 29.0588 8.51461 37.4398 19.0184 37.4398C29.5221 37.4398 38.0367 29.0588 38.0367 18.7199C38.0357 8.38099 29.5211 0 19.0184 0ZM28.9937 23.7984C28.9937 26.4159 26.8371 28.5387 24.1779 28.5387H13.8579C11.1987 28.5387 9.04205 26.4159 9.04205 23.7984V13.6404C9.04205 11.023 11.1987 8.90015 13.8579 8.90015H24.1779C26.8371 8.90015 28.9937 11.023 28.9937 13.6404V23.7984Z" fill="white"/>
<path d="M23.834 10.5929H14.2023C12.3031 10.5929 10.762 12.1099 10.762 13.9792V23.4598C10.762 25.3291 12.3031 26.8461 14.2023 26.8461H23.834C25.7331 26.8461 27.2743 25.3291 27.2743 23.4598V13.9792C27.2743 12.1099 25.7331 10.5929 23.834 10.5929ZM19.0277 23.798C16.1799 23.798 13.8682 21.5226 13.8682 18.7195C13.8682 15.9164 16.1799 13.641 19.0277 13.641C21.8755 13.641 24.1872 15.9164 24.1872 18.7195C24.1872 21.5226 21.8755 23.798 19.0277 23.798ZM24.5318 14.3175C23.9632 14.3175 23.4999 13.8614 23.4999 13.3018C23.4999 12.7421 23.9632 12.286 24.5318 12.286C25.1004 12.286 25.5637 12.7421 25.5637 13.3018C25.5637 13.8614 25.1004 14.3175 24.5318 14.3175Z" fill="white"/>
</svg>
