<svg width="39" height="38" viewBox="0 0 39 38" fill="none" xmlns="http://www.w3.org/2000/svg">
<path d="M19.0183 0C8.5146 0 0 8.38099 0 18.7199C0 29.0588 8.5146 37.4398 19.0183 37.4398C29.5221 37.4398 38.0367 29.0588 38.0367 18.7199C38.0367 8.38099 29.5221 0 19.0183 0ZM14.3231 27.1979C14.3231 27.2969 14.2417 27.3779 14.1403 27.3779H10.4224C10.3219 27.3779 10.2395 27.2978 10.2395 27.1979V15.5022C10.2395 15.4033 10.3209 15.3223 10.4224 15.3223H14.1403C14.2408 15.3223 14.3231 15.4024 14.3231 15.5022V27.1979ZM12.2823 13.7149C10.9297 13.7149 9.83272 12.6351 9.83272 11.3037C9.83272 9.97239 10.9297 8.89261 12.2823 8.89261C13.6349 8.89261 14.7318 9.97239 14.7318 11.3037C14.7318 12.6351 13.6349 13.7149 12.2823 13.7149ZM28.204 26.5742C28.204 27.0161 27.8364 27.3779 27.3875 27.3779H24.9379C24.489 27.3779 24.1214 27.0161 24.1214 26.5742V20.9482C24.1214 19.8392 23.2072 18.9394 22.0805 18.9394C20.9539 18.9394 20.0397 19.8392 20.0397 20.9482V26.5742C20.0397 27.0161 19.6722 27.3779 19.2232 27.3779H16.7736C16.3247 27.3779 15.9571 27.0161 15.9571 26.5742V16.126C15.9571 15.6841 16.3247 15.3223 16.7736 15.3223H19.2232C19.6722 15.3223 20.0397 15.6841 20.0397 16.126V16.6404C20.8563 15.5993 22.2079 14.9209 23.7136 14.9209C25.9669 14.9209 28.204 16.5283 28.204 19.7431V26.5742Z" fill="white"/>
</svg>
