<svg width="142" height="68" viewBox="0 0 142 68" fill="none" xmlns="http://www.w3.org/2000/svg">
<path d="M43.0671 61.2868H26.5518V67.2375H43.0671V61.2868Z" fill="#6B9B3B"/>
<path d="M115.218 61.2867H98.7031V67.2375H115.218V61.2867Z" fill="#C12A21"/>
<path d="M48.1069 62.6625H49.6171C51.4085 62.6625 52.662 63.5374 52.662 64.7224C52.662 66.116 51.385 67.0914 49.5615 67.0914H48.108V62.6625H48.1069ZM49.6492 66.4775C50.8866 66.4775 51.5764 65.9053 51.5764 64.8689C51.5764 63.9128 50.7572 63.2871 49.4481 63.2871H49.1187V66.4775H49.6492Z" fill="white"/>
<path d="M54.1567 67.0906V62.6617H57.3941V63.3345H55.1696V64.512H57.0893V65.1783H55.1696V66.4168H57.6358V67.0895H54.1578L54.1567 67.0906Z" fill="white"/>
<path d="M59.0018 63.8532C59.0018 63.0254 59.8456 62.6147 60.7932 62.6147C61.2274 62.6147 61.8296 62.7024 62.2467 62.897L61.7568 63.5569C61.4274 63.3484 60.9611 63.2339 60.6168 63.2339C60.0777 63.2339 59.9184 63.5099 59.9184 63.712C59.9184 64.4992 62.328 64.5195 62.328 65.9195C62.328 66.7804 61.4039 67.1376 60.4328 67.1376C59.7344 67.1376 59.1152 66.9558 58.7451 66.7344L59.3162 66.0275C59.6777 66.3173 60.1836 66.512 60.6339 66.512C61.0841 66.512 61.4135 66.3237 61.4135 66.0007C61.4135 65.1195 59.0029 65.2339 59.0029 63.8542L59.0018 63.8532Z" fill="white"/>
<path d="M63.7271 62.6625H65.2372C67.0286 62.6625 68.2821 63.5374 68.2821 64.7224C68.2821 66.116 67.0051 67.0914 65.1816 67.0914H63.7281V62.6625H63.7271ZM65.2693 66.4775C66.5067 66.4775 67.1965 65.9053 67.1965 64.8689C67.1965 63.9128 66.3773 63.2871 65.0682 63.2871H64.7388V66.4775H65.2693Z" fill="white"/>
<path d="M69.7759 67.0906V62.6617H73.0133V63.3345H70.7887V64.512H72.7085V65.1783H70.7887V66.4168H73.255V67.0895H69.7769L69.7759 67.0906Z" fill="white"/>
<path d="M78.4132 63.685L77.2891 64.2978L76.7993 63.685L78.8881 62.6625H79.3544V67.0914H78.4143V63.6861L78.4132 63.685Z" fill="white"/>
<path d="M81.1216 64.0689C81.1216 63.2347 81.8446 62.6155 82.9365 62.6155C84.0285 62.6155 84.6317 63.2486 84.6317 64.2443C84.6317 65.7309 83.3141 66.9363 81.5879 67.1587L81.4189 66.5256C82.4146 66.3769 83.251 65.8122 83.5558 64.9983C83.2585 65.1598 82.913 65.2678 82.4873 65.2678C81.5152 65.2678 81.1216 64.6892 81.1216 64.07V64.0689ZM82.9044 64.6882C83.129 64.6882 83.4103 64.6347 83.6595 64.5203C83.6681 64.4593 83.6681 64.3994 83.6681 64.332C83.6681 63.6925 83.3633 63.2155 82.7921 63.2155C82.3665 63.2155 82.0852 63.485 82.0852 63.9149C82.0852 64.3117 82.3258 64.6892 82.9044 64.6892V64.6882Z" fill="white"/>
<path d="M86.167 62.6956L88.7541 62.6282V63.348H86.9146L86.8419 64.2635C86.9381 64.2571 87.0429 64.2571 87.1392 64.2571C88.2953 64.2571 88.9702 64.7683 88.9702 65.6228C88.9702 66.5319 88.2397 67.1373 87.1392 67.1373C86.5531 67.1373 86.0547 66.9554 85.6611 66.6325L86.0868 66.1341C86.3435 66.3426 86.6814 66.4367 87.059 66.4367C87.6536 66.4367 88.0386 66.1405 88.0386 65.6902C88.0386 65.1587 87.5895 64.8485 86.8183 64.8485C86.5937 64.8485 86.1916 64.8753 85.967 64.9362L86.1681 62.6956H86.167Z" fill="white"/>
<path d="M93.0356 65.4017H93.6612V66.0412H93.0431L93.0505 67.0915H92.1832L92.1907 66.0412H90.15L89.8281 65.5707L92.2388 62.5964L93.0099 62.6638L93.0345 65.4028L93.0356 65.4017ZM92.1917 65.4017L92.2003 63.7397L90.8827 65.4017H92.1917Z" fill="white"/>
<path d="M80.1273 3.23942C79.5145 2.53996 78.4889 2.05869 77.6728 1.96778C76.1755 1.7988 74.9959 2.89183 74.829 4.35491C74.6761 5.72174 75.4397 7.11851 77.1926 7.31637C77.8985 7.39551 78.7113 7.29391 79.2407 7.0137L79.3894 5.695L77.0279 5.42763L77.1883 4.01374L81.1562 4.45972L80.7605 7.97305C79.6568 8.61368 78.1766 8.92063 76.9552 8.78266C74.4483 8.50031 72.7873 6.44259 73.0472 4.13994C73.3039 1.8512 75.4087 0.206307 77.83 0.4801C79.0653 0.619136 80.3637 1.26298 81.3883 2.30147L80.1273 3.23942Z" fill="#C12A21"/>
<path d="M70.1068 8.04199L70.1015 0.314819H68.3774L68.3828 8.04413C68.9539 8.03878 69.5282 8.03878 70.1068 8.04092" fill="#C12A21"/>
<path d="M88.4809 9.70077C88.498 9.70398 88.5141 9.70612 88.5312 9.70826C89.0328 9.78954 89.5291 9.87189 90.021 9.95531L90.2317 8.51683L85.6478 7.84625L86.5729 1.51906L84.866 1.2688L83.7334 9.01522C85.3494 9.22163 86.9366 9.45264 88.4809 9.70077Z" fill="#C12A21"/>
<path d="M94.1562 10.7079L95.6546 3.01389L93.9605 2.68341L92.46 10.387C93.0343 10.4929 93.6001 10.5999 94.1551 10.7079" fill="#C12A21"/>
<path d="M98.1369 11.5283L99.201 10.1636L102.722 11.0909L102.958 12.6438C103.612 12.8032 104.217 12.9572 104.78 13.0994L103.299 4.82144L101.865 4.44391L96.3262 11.1283L96.6502 11.2139C97.1572 11.3187 97.6524 11.4256 98.1358 11.5294M101.983 6.60538L102.052 6.62356L102.497 9.62245L100.119 8.99572L101.983 6.60538Z" fill="#C12A21"/>
<path d="M56.8452 8.74078C57.3286 8.68837 57.8174 8.63811 58.3115 8.58998L58.0088 4.08309L58.0687 4.07881L60.5168 7.59962L60.9992 7.56646L62.9521 3.75047L63.0131 3.74619L63.3136 8.2103C63.8879 8.17929 64.4644 8.15041 65.0483 8.12795L64.5243 0.332336L62.9243 0.440356L60.6505 4.91944H60.6281L57.7629 0.786876L56.1147 0.898104L56.642 8.75468L56.8452 8.74078Z" fill="#C12A21"/>
<path d="M47.6837 10.063L48.0719 8.45551L51.6633 7.8491L52.5927 9.27368C53.2152 9.18598 53.8494 9.10042 54.4986 9.01807L49.6066 1.89838L48.1436 2.14329L45.8848 10.4009C46.4612 10.2886 47.0655 10.1763 47.6847 10.064M49.1393 4.06733L49.2099 4.0545L50.8526 6.6042L48.4259 7.01488L49.1393 4.06733Z" fill="#C12A21"/>
<path d="M41.0532 11.4382L40.1698 8.44574L42.958 7.62223L42.5366 6.19979L39.7506 7.02437L39.2992 5.49712L43.881 4.14313L43.4575 2.70892L37.2212 4.55061L39.3762 11.85C39.8746 11.7238 40.4393 11.5858 41.0543 11.4393" fill="#C12A21"/>
<path d="M63.9257 0C63.9257 0 63.9235 0.00552672 63.9224 0.00884276C63.9224 0.00884276 63.9235 0.00552672 63.9257 0Z" fill="#C12A21"/>
<path d="M138.51 33.328C139.27 33.3997 140.147 33.0403 140.764 32.0521C141.437 30.9067 141.952 29.7088 141.993 29.2693C142.058 28.5923 141.653 28.1901 141.055 28.1345C140.216 28.0554 139.035 28.6286 138.232 29.881C137.954 30.2564 137.262 31.1976 137.188 31.9954C137.119 32.7152 137.712 33.2532 138.509 33.3291" fill="white"/>
<path d="M43.5259 21.2878C41.7698 19.8739 38.4372 20.0386 36.0158 20.9809C32.8287 22.2215 30.1571 24.2311 26.6363 29.8802C23.9219 34.2342 19.8192 44.2522 16.5508 51.8404C15.2353 54.8938 13.5969 57.3558 12.9904 56.9622C12.3851 56.5686 12.3359 54.8852 12.5947 52.5976C12.9541 49.3912 15.2781 40.1271 17.9219 30.5134C20.7059 20.3948 19.7123 14.1906 18.5455 11.0334C17.8267 9.08372 15.7551 4.55223 11.1605 2.38434C9.983 1.82927 8.6921 1.43141 7.21512 1.27099V1.26564C7.10175 1.25601 7.00335 1.24746 6.90817 1.2389C6.88464 1.23676 6.86004 1.23462 6.83651 1.23355C6.39908 1.19826 6.09321 1.1865 5.35418 1.18757C1.06118 1.19505 0.0184149 2.58755 0.000233343 4.01854C-0.0126007 5.04099 0.508248 5.94686 0.508248 5.94686L0.531778 5.98322C0.542473 5.08805 1.20343 3.78753 4.66755 3.24315C10.1926 2.37472 12.2931 6.85915 12.2931 6.85915C12.3006 6.87626 12.306 6.8923 12.3124 6.90834C15.1947 12.0024 14.492 21.0985 12.9787 27.3733C11.8856 31.9037 8.09425 44.8479 7.64934 49.2564C7.49747 50.7623 6.51138 54.2745 8.152 57.4563C9.58728 60.2424 13.1477 59.79 14.4835 58.6296C18.2385 55.3686 21.6684 45.1741 23.4534 41.3646C27.4181 32.9005 30.6533 28.6161 33.5848 26.7626C37.1762 24.4921 40.1334 24.5124 41.4896 24.6322C43.4542 24.8033 43.9066 25.9819 43.9066 25.9819C43.9066 25.9819 45.6093 22.9637 43.5259 21.2878Z" fill="white"/>
<path d="M135.15 47.6854C135.147 47.6715 135.144 47.6576 135.141 47.6437C134.757 45.5464 135.207 43.2748 135.25 43.0673C135.418 42.4449 135.638 41.8331 135.902 41.231C136.61 39.6192 137.208 38.0353 137.826 37.0867C138.221 36.4813 138.119 35.6835 137.557 35.2321L137.055 34.8311C136.507 34.3915 135.733 34.4995 135.328 35.0728C134.369 36.4385 132.816 38.9112 131.954 41.6427C130.373 44.1368 127.279 48.5261 126.107 48.5421C125.838 48.4672 125.722 48.4309 125.714 47.817C125.7 46.7421 126.251 44.6213 126.914 42.385C130.317 32.0504 137.271 19.8077 137.26 19.0398C137.254 18.4645 136.903 18.1981 136.365 18.2056C135.56 18.2163 134.377 18.8837 133.624 20.1607C132.789 21.505 125.869 33.706 123.528 40.6567C122.41 42.5807 118.381 48.6384 117.004 48.6555C116.736 48.5828 116.62 48.5442 116.611 47.9304C116.598 46.8555 117.149 44.7347 117.81 42.5005C121.214 32.1637 128.166 19.9222 128.157 19.1532C128.151 18.5778 127.801 18.3126 127.264 18.3201C126.456 18.3308 125.275 18.9981 124.524 20.2751C123.655 21.6698 116.254 34.722 114.187 41.5069C113.988 42.0492 113.804 42.5967 113.639 43.1411C111.916 45.5785 109.587 48.1635 107.568 48.1881C106.055 48.2074 105.266 47.1956 105.066 44.2523C105.061 43.7625 105.096 43.2716 105.17 42.739V42.6983C107.984 42.1732 113.54 38.5861 113.494 34.9081C113.472 33.2739 112.269 31.6525 110.184 31.6792C106.081 31.7316 101.634 37.2642 101.013 42.7048C100.007 45.017 97.8543 48.9571 95.7207 49.0779C95.6629 49.0694 95.6041 49.0608 95.5538 49.0362C95.5228 49.0223 95.5036 48.9924 95.4779 48.9678C94.8544 47.6747 97.3421 41.6053 98.5538 38.6535C99.9388 35.2877 100.142 34.7124 99.8982 34.2386C99.5463 33.5552 98.5688 33.5445 95.7956 33.6065C95.2651 33.6183 94.649 33.6322 94.0394 33.6332C94.4662 32.2097 94.3581 30.9488 93.7432 30.1541C93.1603 29.3991 92.2159 29.2055 91.3988 29.3959C90.401 29.6269 89.4459 30.7434 89.2074 31.8814C88.9892 32.9241 89.2876 33.9701 90.1871 34.507C90.7945 34.8685 91.8576 34.8878 92.371 34.8995C91.6865 37.0203 90.048 39.5583 89.1625 41.0652C87.5957 43.7326 84.385 48.6512 82.6599 48.1956C81.062 47.7742 87.2427 33.8493 87.2299 32.8268C87.2235 32.2557 86.8513 31.9734 86.3197 31.9798C85.4609 31.9915 84.2021 32.7017 83.4011 34.0204C82.8021 35.0097 81.5636 37.3968 80.4931 40.0267C79.6546 41.6299 74.9616 48.8448 73.367 48.864C73.0803 48.7849 72.9563 48.7475 72.9477 48.0919C72.9028 44.4128 77.5541 33.9712 77.5434 32.9487C77.5359 32.3776 77.1648 32.0942 76.6322 32.1017C75.7744 32.1113 74.5145 32.8225 73.7135 34.1402C73.0803 35.1765 71.7114 37.7679 70.6076 40.5925C69.2996 42.7978 65.1885 48.925 63.7607 48.9421C63.473 48.8651 63.3489 48.8255 63.3403 48.1314C63.3018 44.9828 69.6205 30.3691 71.6793 24.9884C74.7006 24.705 77.6813 24.4227 80.5016 24.3874C84.3861 24.3382 87.0481 24.7959 87.6769 25.9734C87.6406 23.1104 82.4781 22.1959 75.2022 22.2869L72.6664 22.3585L73.5755 19.935C73.7359 19.5254 73.8129 19.2366 73.8087 18.9521C73.8033 18.3778 73.4301 18.0965 72.8985 18.104C72.0408 18.1137 70.783 18.8259 69.982 20.1853C69.7413 20.5575 69.3435 21.3778 68.7841 22.4911C66.5125 22.628 64.8366 22.735 63.2687 22.8109C62.0847 22.8687 60.9628 22.9082 59.6933 22.9296C59.4987 22.9328 59.3019 22.936 59.0998 22.9382C55.1768 22.9874 53.0474 22.6869 53.0335 21.5425L53.0303 21.3778C53.0303 21.3778 53.0303 21.3382 53.0699 21.2548L52.9897 21.3799C52.9897 21.3799 52.4688 22.2847 52.4817 23.3072C52.4998 24.7371 53.5415 26.2782 57.8335 26.2248C58.3928 26.2173 59.0163 26.1895 59.6933 26.1467C60.7618 26.0782 61.966 25.9702 63.2687 25.8387C64.52 25.7125 65.8622 25.566 67.2676 25.4119L67.5136 25.4087C66.0997 28.6472 62.2976 36.6064 60.9233 40.8288C59.5981 43.0973 55.5586 49.0865 54.1116 49.1047C53.8239 49.0255 53.7009 48.9881 53.6934 48.3731C53.6603 45.7582 56.9436 37.0075 57.8966 34.6653C58.0153 34.3359 58.0934 34.0503 58.0901 33.8054C58.0762 32.7819 57.0891 32.3455 55.8228 32.3605C52.9629 32.4782 48.4122 38.1358 44.8165 44.6427C46.8154 37.8289 48.6903 34.1273 48.6806 33.3102C48.6732 32.737 48.3031 32.4557 47.7705 32.4621C46.9127 32.4739 45.6539 33.183 44.8133 34.5423C44.1513 35.6182 43.1128 38.0706 42.1556 40.9411C40.7898 43.4085 37.1118 49.0715 34.1204 49.1079C32.6081 49.1271 31.8188 48.1154 31.6178 45.1753C31.6103 44.6844 31.6456 44.1946 31.7215 43.6609V43.6192C34.5354 43.0941 40.0904 39.508 40.0455 35.8289C40.0241 34.1947 38.8187 32.5744 36.7332 32.6012C32.2776 32.6557 27.4125 39.1765 27.4852 45.0224C27.5376 49.0704 29.7258 50.8833 32.8744 50.9228C36.2145 50.8833 38.7995 48.4576 40.7845 45.647C40.5171 46.7304 40.2904 47.8074 40.1257 48.8298V48.9924C40.1364 49.771 41.254 50.8608 42.2358 50.849C42.6871 50.8437 43.132 50.5902 43.4112 49.9742C44.4743 46.6908 51.2902 36.0995 54.5779 34.0942C53.2998 36.4011 49.7074 43.478 49.7598 47.6459C49.7822 49.4854 50.5341 50.8266 52.6207 50.7998C52.9052 50.7966 53.2335 50.7506 53.5993 50.7057C55.5244 50.4373 57.826 47.8202 59.6334 45.247C59.4826 46.0331 59.3992 46.7785 59.4078 47.4437C59.4313 49.3635 60.1832 50.7036 62.3093 50.6779L63.2088 50.5838C65.1307 50.295 67.4066 47.7336 69.2066 45.1903C69.0558 45.9635 68.9649 46.7026 68.9734 47.3635C68.997 49.2833 69.7905 50.5838 71.8771 50.5592L72.8151 50.464C74.7755 50.1945 77.1113 47.509 78.9605 44.909C78.8075 45.771 78.6952 46.5486 78.7049 47.2844C78.7273 49.1646 79.4803 50.4629 81.5647 50.4373C81.8513 50.433 82.5348 50.433 82.8599 50.371C85.8545 49.8009 88.3144 45.8962 89.7101 43.3475C91.156 40.708 92.6533 37.8834 93.7261 34.9476C94.2523 34.9519 94.8715 34.922 95.4961 34.969C96.7955 35.0674 92.4705 43.3197 91.9336 46.217C91.5913 48.0694 92.1336 49.4277 93.2309 50.095C93.7859 50.4319 95.526 50.6918 96.5474 50.2619C98.4105 49.695 99.9891 47.5282 101.069 45.5839C101.585 48.5924 103.592 49.9667 106.328 50.0031C108.996 49.971 111.18 48.4138 112.963 46.3593C112.935 46.6662 112.916 46.9667 112.918 47.2459C112.942 49.0512 113.648 50.2726 115.606 50.248C115.876 50.2448 116.181 50.2031 116.488 50.1613C118.343 49.9057 120.55 47.3828 122.26 44.9325C122.103 45.7218 122.012 46.4726 122.019 47.1325C122.042 48.9378 122.749 50.1592 124.707 50.1346C124.977 50.1314 125.285 50.0897 125.59 50.0458C127.444 49.7924 129.648 47.2747 131.357 44.8267C131.357 44.8267 131.251 45.9614 131.55 47.202C131.597 47.4159 131.669 47.6694 131.773 47.94C131.787 47.9785 131.796 48.0181 131.811 48.0555C131.804 48.032 131.798 48.0116 131.792 47.9881C132.234 49.1015 133.249 50.4597 135.561 50.4116C135.612 50.4105 135.668 50.4116 135.716 50.4095C135.718 50.4095 135.72 50.4095 135.722 50.4095C135.722 50.4095 135.753 50.4052 135.804 50.3977C136.067 50.3688 136.281 50.3047 136.454 50.2191C136.455 50.2191 136.457 50.218 136.458 50.217C136.501 50.1956 136.54 50.1742 136.578 50.1506C136.58 50.1496 136.582 50.1474 136.584 50.1464C137.124 49.8063 137.188 49.2683 137.188 49.2683C137.188 49.2683 135.759 49.7774 135.241 48.0469C135.236 48.0255 135.229 48.0042 135.224 47.9828C135.198 47.8897 135.175 47.7913 135.154 47.6865L135.15 47.6854ZM105.22 40.9668C105.652 39.5733 106.511 37.5637 107.596 36.1188C108.764 34.6321 109.862 34.0461 110.638 34.0364C110.661 34.0364 110.679 34.0407 110.7 34.0418C110.769 34.0332 110.836 34.0268 110.9 34.0257C111.629 34.0172 112.005 34.4995 112.084 35.0952C112.1 35.1872 112.11 35.2813 112.111 35.3776C112.142 37.8727 107.314 40.7957 105.399 41.3914C105.399 41.3914 105.072 41.5112 105.126 41.3433L105.22 40.9679V40.9668ZM31.7782 41.8941C32.2124 40.4984 33.0445 38.4834 34.13 37.0375C35.2968 35.5508 36.3952 34.9648 37.1717 34.9562C37.3214 34.9541 37.4519 34.9787 37.5728 35.015C38.3075 35.0621 38.6519 35.6375 38.6594 36.2984C38.6904 38.7904 33.7985 41.5401 31.9482 42.3101C31.8808 42.3379 31.6028 42.493 31.6616 42.262L31.7782 41.893V41.8941ZM92.725 33.6043C92.5154 33.5937 92.325 33.5648 92.1528 33.5263C91.5357 33.4418 91.1079 33.214 90.8919 33.0525C90.3582 32.6557 89.9004 31.7284 90.5026 31.0825C90.8619 30.6964 91.3432 30.675 91.6801 30.7359C92.064 30.8055 92.3079 31.0407 92.4801 31.2632C92.8726 31.768 92.9592 32.5049 92.725 33.6033V33.6043Z" fill="white"/>
</svg>
