<svg width="275" height="130" viewBox="0 0 275 130" fill="none" xmlns="http://www.w3.org/2000/svg">
<path d="M83.269 118.494H51.3372V130H83.269V118.494Z" fill="white"/>
<path d="M222.771 118.494H190.839V130H222.771V118.494Z" fill="white"/>
<path d="M93.012 121.152H95.9318C99.3954 121.152 101.819 122.843 101.819 125.135C101.819 127.829 99.3499 129.715 95.8242 129.715H93.014V121.152H93.012ZM95.9938 128.528C98.3863 128.528 99.7201 127.422 99.7201 125.418C99.7201 123.569 98.1361 122.359 95.6051 122.359H94.9682V128.528H95.9938Z" fill="white"/>
<path d="M104.709 129.714V121.151H110.969V122.452H106.667V124.728H110.379V126.017H106.667V128.411H111.436V129.712H104.711L104.709 129.714Z" fill="white"/>
<path d="M114.078 123.454C114.078 121.854 115.709 121.06 117.541 121.06C118.381 121.06 119.545 121.229 120.351 121.606L119.404 122.882C118.767 122.478 117.866 122.257 117.2 122.257C116.158 122.257 115.85 122.791 115.85 123.181C115.85 124.703 120.509 124.743 120.509 127.449C120.509 129.114 118.722 129.805 116.844 129.805C115.494 129.805 114.297 129.453 113.581 129.025L114.686 127.658C115.384 128.219 116.363 128.595 117.233 128.595C118.104 128.595 118.741 128.231 118.741 127.607C118.741 125.903 114.08 126.124 114.08 123.456L114.078 123.454Z" fill="white"/>
<path d="M123.214 121.152H126.134C129.598 121.152 132.021 122.843 132.021 125.135C132.021 127.829 129.552 129.715 126.026 129.715H123.216V121.152H123.214ZM126.196 128.528C128.588 128.528 129.922 127.422 129.922 125.418C129.922 123.569 128.338 122.359 125.807 122.359H125.17V128.528H126.196Z" fill="white"/>
<path d="M134.908 129.714V121.151H141.168V122.452H136.867V124.728H140.579V126.017H136.867V128.411H141.635V129.712H134.911L134.908 129.714Z" fill="white"/>
<path d="M151.608 123.129L149.435 124.314L148.488 123.129L152.527 121.152H153.428V129.715H151.61V123.131L151.608 123.129Z" fill="white"/>
<path d="M156.845 123.872C156.845 122.259 158.243 121.062 160.354 121.062C162.465 121.062 163.631 122.286 163.631 124.211C163.631 127.085 161.084 129.416 157.746 129.846L157.42 128.622C159.345 128.334 160.962 127.243 161.551 125.669C160.976 125.981 160.308 126.19 159.485 126.19C157.606 126.19 156.845 125.071 156.845 123.874V123.872ZM160.292 125.069C160.726 125.069 161.27 124.966 161.752 124.745C161.768 124.627 161.768 124.511 161.768 124.381C161.768 123.144 161.179 122.222 160.075 122.222C159.252 122.222 158.708 122.743 158.708 123.574C158.708 124.341 159.173 125.071 160.292 125.071V125.069Z" fill="white"/>
<path d="M166.602 121.217L171.604 121.087V122.478H168.047L167.906 124.249C168.093 124.236 168.295 124.236 168.481 124.236C170.717 124.236 172.021 125.225 172.021 126.877C172.021 128.634 170.609 129.805 168.481 129.805C167.348 129.805 166.385 129.453 165.624 128.829L166.447 127.865C166.943 128.268 167.596 128.45 168.326 128.45C169.476 128.45 170.22 127.878 170.22 127.007C170.22 125.979 169.352 125.38 167.861 125.38C167.427 125.38 166.649 125.431 166.215 125.549L166.604 121.217H166.602Z" fill="white"/>
<path d="M179.88 126.449H181.09V127.686H179.895L179.909 129.717H178.232L178.247 127.686H174.301L173.679 126.776L178.34 121.025L179.831 121.156L179.878 126.451L179.88 126.449ZM178.249 126.449L178.265 123.236L175.718 126.449H178.249Z" fill="white"/>
<path d="M154.924 6.26287C153.739 4.91048 151.756 3.97994 150.178 3.80417C147.283 3.47745 145.002 5.59081 144.68 8.41966C144.384 11.0624 145.861 13.763 149.25 14.1456C150.615 14.2986 152.186 14.1022 153.21 13.5604L153.497 11.0107L148.931 10.4937L149.241 7.76001L156.913 8.62231L156.148 15.4153C154.014 16.6539 151.152 17.2474 148.791 16.9806C143.944 16.4347 140.732 12.4561 141.235 8.00401C141.731 3.57877 145.801 0.398388 150.482 0.927762C152.871 1.19659 155.381 2.44144 157.362 4.44935L154.924 6.26287Z" fill="white"/>
<path d="M135.551 15.5477L135.54 0.607361H132.207L132.217 15.5519C133.321 15.5415 134.432 15.5415 135.551 15.5457" fill="white"/>
<path d="M171.076 18.7555C171.109 18.7617 171.14 18.7658 171.173 18.77C172.143 18.9271 173.102 19.0863 174.053 19.2476L174.461 16.4664L165.598 15.1698L167.387 2.93627L164.086 2.45239L161.896 17.43C165.021 17.8291 168.09 18.2757 171.076 18.7555Z" fill="white"/>
<path d="M182.048 20.7038L184.945 5.82751L181.67 5.18854L178.769 20.0834C179.879 20.2881 180.973 20.4949 182.046 20.7038" fill="white"/>
<path d="M189.745 22.2902L191.802 19.6516L198.609 21.4445L199.066 24.447C200.33 24.7551 201.5 25.0529 202.588 25.3279L199.726 9.32261L196.953 8.59265L186.244 21.5168L186.87 21.6823C187.85 21.8849 188.808 22.0917 189.742 22.2923M197.181 12.7718L197.315 12.807L198.175 18.6053L193.576 17.3935L197.181 12.7718Z" fill="white"/>
<path d="M109.908 16.9004C110.843 16.7991 111.788 16.7019 112.743 16.6088L112.158 7.89484L112.274 7.88657L117.007 14.694L117.94 14.6299L121.716 7.25174L121.834 7.24346L122.415 15.8748C123.525 15.8148 124.64 15.759 125.769 15.7155L124.756 0.642822L121.662 0.851677L117.266 9.51192H117.222L111.683 1.52167L108.496 1.73673L109.516 16.9273L109.908 16.9004Z" fill="white"/>
<path d="M92.1949 19.4559L92.9456 16.3479L99.8894 15.1754L101.686 17.9298C102.89 17.7603 104.116 17.5948 105.371 17.4356L95.9129 3.6698L93.0841 4.14334L88.7168 20.1094C89.8314 19.8922 90.9997 19.6751 92.197 19.458M95.0093 7.86344L95.1458 7.83863L98.322 12.7684L93.63 13.5625L95.0093 7.86344Z" fill="white"/>
<path d="M79.3749 22.1165L77.6669 16.3306L83.0578 14.7383L82.2431 11.9881L76.8563 13.5824L75.9837 10.6295L84.8424 8.01154L84.0235 5.23853L71.9658 8.7994L76.1326 22.9126C77.0962 22.6686 78.188 22.4019 79.377 22.1186" fill="white"/>
<path d="M123.597 6.10352e-05C123.597 6.10352e-05 123.594 0.00909755 123.592 0.0145195C123.592 0.0145195 123.594 0.00909755 123.597 6.10352e-05Z" fill="white"/>
<path d="M267.807 64.4374C269.275 64.5759 270.97 63.8811 272.164 61.9704C273.464 59.7557 274.461 57.4397 274.54 56.5898C274.666 55.2809 273.882 54.5033 272.726 54.3958C271.105 54.2428 268.82 55.3512 267.269 57.7726C266.731 58.4985 265.393 60.3182 265.249 61.8608C265.116 63.2525 266.262 64.2926 267.805 64.4395" fill="white"/>
<path d="M84.1559 41.1584C80.7605 38.4247 74.3171 38.7432 69.6355 40.5649C63.4733 42.9637 58.3078 46.8492 51.5004 57.7717C46.2522 66.19 38.3199 85.5597 32.0005 100.231C29.457 106.135 26.2891 110.895 25.1166 110.134C23.9462 109.373 23.8511 106.119 24.3515 101.695C25.0463 95.4959 29.5398 77.584 34.6515 58.9959C40.0341 39.4317 38.1131 27.436 35.8571 21.3317C34.4675 17.562 30.462 8.80039 21.5785 4.60881C19.3018 3.53559 16.8059 2.76634 13.9502 2.45616V2.44582C13.731 2.42721 13.5408 2.41067 13.3567 2.39412C13.3112 2.38999 13.2637 2.38585 13.2182 2.38378C12.3724 2.31555 11.781 2.2928 10.3521 2.29487C2.05176 2.30934 0.0356047 5.00171 0.000451161 7.76852C-0.0243631 9.7454 0.982682 11.4969 0.982682 11.4969L1.02818 11.5672C1.04885 9.83639 2.32679 7.32186 9.02457 6.26931C19.7071 4.5902 23.7684 13.2608 23.7684 13.2608C23.7829 13.2939 23.7932 13.3249 23.8056 13.3559C29.3785 23.2052 28.0199 40.7924 25.0939 52.9246C22.9805 61.6841 15.65 86.7115 14.7897 95.2353C14.4961 98.1469 12.5896 104.938 15.7616 111.09C18.5367 116.476 25.4206 115.602 28.0033 113.358C35.2636 107.053 41.8952 87.3422 45.3464 79.9765C53.012 63.6114 59.2672 55.3275 64.9352 51.7439C71.8791 47.3538 77.5967 47.3931 80.2187 47.6247C84.0174 47.9555 84.8921 50.2343 84.8921 50.2343C84.8921 50.2343 88.1841 44.3988 84.1559 41.1584Z" fill="white"/>
<path d="M261.308 92.1969C261.302 92.17 261.296 92.1431 261.289 92.1163C260.547 88.0612 261.418 83.669 261.5 83.2678C261.825 82.0643 262.251 80.8815 262.762 79.7173C264.131 76.601 265.287 73.5385 266.482 71.7043C267.245 70.5339 267.048 68.9913 265.961 68.1186L264.991 67.3432C263.932 66.4933 262.435 66.7021 261.651 67.8105C259.798 70.4512 256.796 75.2321 255.129 80.5134C252.071 85.3357 246.089 93.8223 243.824 93.8533C243.303 93.7085 243.08 93.6382 243.063 92.4513C243.036 90.373 244.101 86.2725 245.383 81.9485C251.963 61.9667 265.409 38.2958 265.388 36.8111C265.376 35.6986 264.697 35.1837 263.657 35.1981C262.1 35.2188 259.813 36.5092 258.357 38.9782C256.742 41.5775 243.363 65.1678 238.837 78.6069C236.676 82.327 228.886 94.0394 226.223 94.0725C225.706 93.9319 225.48 93.8574 225.464 92.6705C225.439 90.5922 226.504 86.4917 227.782 82.1719C234.364 62.1859 247.805 38.5171 247.786 37.0303C247.776 35.9178 247.098 35.4049 246.06 35.4194C244.498 35.4401 242.216 36.7304 240.762 39.1995C239.083 41.896 224.773 67.1323 220.776 80.2508C220.391 81.2992 220.036 82.358 219.717 83.4105C216.386 88.1232 211.882 93.1212 207.978 93.1688C205.054 93.206 203.528 91.2498 203.141 85.559C203.131 84.612 203.199 83.6628 203.342 82.633V82.5544C208.782 81.5391 219.525 74.6035 219.436 67.4921C219.395 64.3324 217.068 61.1975 213.036 61.2492C205.104 61.3505 196.506 72.0476 195.304 82.5668C193.36 87.0376 189.198 94.6556 185.072 94.8893C184.961 94.8727 184.847 94.8562 184.75 94.8086C184.69 94.7817 184.653 94.7238 184.603 94.6763C183.397 92.1762 188.207 80.4411 190.55 74.7337C193.228 68.2262 193.621 67.1136 193.149 66.1976C192.469 64.8762 190.579 64.8555 185.217 64.9755C184.192 64.9982 183 65.0251 181.822 65.0272C182.647 62.2748 182.438 59.8368 181.249 58.3004C180.122 56.8405 178.296 56.4662 176.716 56.8343C174.787 57.2809 172.94 59.4398 172.479 61.64C172.057 63.6562 172.634 65.6785 174.373 66.7166C175.548 67.4156 177.603 67.4528 178.596 67.4755C177.272 71.5761 174.105 76.4832 172.392 79.3968C169.363 84.5541 163.155 94.0642 159.82 93.1833C156.73 92.3685 168.681 65.4449 168.656 63.468C168.643 62.3637 167.924 61.8178 166.896 61.8302C165.235 61.853 162.802 63.226 161.253 65.7757C160.095 67.6885 157.7 72.304 155.63 77.3889C154.009 80.4886 144.935 94.4385 141.852 94.4757C141.298 94.3227 141.058 94.2503 141.042 92.9827C140.955 85.8692 149.948 65.6806 149.927 63.7037C149.913 62.5995 149.195 62.0515 148.165 62.066C146.507 62.0846 144.071 63.4597 142.522 66.0073C141.298 68.0111 138.651 73.0215 136.517 78.4828C133.988 82.7467 126.039 94.5936 123.279 94.6267C122.722 94.4778 122.483 94.4013 122.466 93.0592C122.392 86.9714 134.608 58.716 138.589 48.3126C144.431 47.7646 150.194 47.2187 155.647 47.1504C163.157 47.0553 168.304 47.9403 169.52 50.2171C169.45 44.6814 159.468 42.9134 145.401 43.0891L140.498 43.2277L142.255 38.5419C142.566 37.7499 142.714 37.1916 142.706 36.6415C142.696 35.5311 141.974 34.9872 140.946 35.0017C139.288 35.0203 136.856 36.3975 135.307 39.0258C134.842 39.7454 134.073 41.3314 132.991 43.4841C128.599 43.7488 125.359 43.9556 122.328 44.1024C120.038 44.214 117.869 44.2906 115.415 44.3319C115.038 44.3381 114.658 44.3443 114.267 44.3485C106.682 44.4436 102.565 43.8625 102.538 41.6499L102.532 41.3314C102.532 41.3314 102.532 41.2549 102.608 41.0936L102.453 41.3356C102.453 41.3356 101.446 43.085 101.471 45.0619C101.506 47.8266 103.52 50.8064 111.819 50.703C112.9 50.6885 114.106 50.6348 115.415 50.5521C117.48 50.4197 119.809 50.2109 122.328 49.9565C124.747 49.7125 127.342 49.4292 130.059 49.1314L130.535 49.1252C127.801 55.3868 120.45 70.7758 117.793 78.9398C115.231 83.3257 107.42 94.9058 104.623 94.941C104.066 94.788 103.828 94.7156 103.814 93.5266C103.75 88.4706 110.098 71.5513 111.941 67.0227C112.17 66.3858 112.321 65.8336 112.315 65.3601C112.288 63.3811 110.379 62.5374 107.931 62.5664C102.402 62.7939 93.6029 73.7329 86.6508 86.3138C90.5156 73.1394 94.1406 65.9825 94.122 64.4027C94.1075 63.2943 93.392 62.7504 92.3622 62.7628C90.7038 62.7856 88.2699 64.1566 86.6446 66.7849C85.3646 68.8651 83.3567 73.6068 81.506 79.1569C78.8653 83.9275 71.754 94.8769 65.9702 94.9472C63.0462 94.9844 61.5202 93.0282 61.1314 87.3436C61.1169 86.3945 61.1852 85.4474 61.332 84.4155V84.3349C66.7725 83.3195 77.5129 76.386 77.4261 69.2725C77.3847 66.1128 75.0543 62.98 71.0219 63.0317C62.4073 63.1371 53.0006 75.7449 53.1412 87.0479C53.2425 94.8748 57.4734 98.3798 63.5611 98.4564C70.019 98.3798 75.017 93.6899 78.855 88.2555C78.338 90.3503 77.8996 92.4326 77.5812 94.4095V94.7238C77.6019 96.2293 79.7628 98.3364 81.6611 98.3137C82.5337 98.3033 83.3939 97.8132 83.9336 96.6222C85.9891 90.2738 99.1675 69.7957 105.524 65.9184C103.053 70.3788 96.1071 84.0619 96.2084 92.1204C96.2519 95.6771 97.7056 98.2702 101.74 98.2186C102.29 98.2123 102.925 98.1234 103.632 98.0366C107.354 97.5175 111.804 92.4575 115.299 87.4822C115.007 89.002 114.846 90.4434 114.863 91.7296C114.908 95.4414 116.362 98.0324 120.473 97.9828L122.212 97.8008C125.928 97.2425 130.328 92.29 133.808 87.3726C133.517 88.8676 133.341 90.2965 133.357 91.5745C133.403 95.2863 134.937 97.8008 138.972 97.7533L140.785 97.5692C144.576 97.0481 149.092 91.8557 152.667 86.8287C152.371 88.4954 152.154 89.9988 152.173 91.4215C152.216 95.0568 153.672 97.5672 157.702 97.5175C158.256 97.5093 159.578 97.5093 160.206 97.3893C165.996 96.2872 170.753 88.7374 173.451 83.8096C176.247 78.7061 179.142 73.2449 181.216 67.5686C182.233 67.5768 183.431 67.5189 184.638 67.6099C187.151 67.8002 178.788 83.7559 177.75 89.3577C177.088 92.9393 178.137 95.5655 180.258 96.8558C181.332 97.5072 184.696 98.0097 186.671 97.1784C190.273 96.0824 193.325 91.8929 195.414 88.1335C196.41 93.9505 200.292 96.6077 205.581 96.678C210.741 96.6159 214.963 93.6051 218.41 89.6327C218.357 90.2262 218.319 90.8073 218.324 91.347C218.369 94.8376 219.734 97.1991 223.52 97.1515C224.041 97.1453 224.633 97.0647 225.226 96.984C228.812 96.4898 233.08 91.6117 236.386 86.8742C236.082 88.4003 235.907 89.8519 235.919 91.1278C235.964 94.6184 237.331 96.9799 241.117 96.9323C241.639 96.9261 242.234 96.8455 242.823 96.7607C246.409 96.2706 250.669 91.4028 253.973 86.6695C253.973 86.6695 253.769 88.8635 254.348 91.2622C254.439 91.6758 254.577 92.1659 254.778 92.6891C254.805 92.7635 254.823 92.84 254.852 92.9124C254.838 92.8669 254.827 92.8276 254.815 92.7821C255.669 94.9348 257.631 97.561 262.102 97.4679C262.201 97.4658 262.309 97.4679 262.402 97.4638C262.406 97.4638 262.41 97.4638 262.414 97.4638C262.414 97.4638 262.474 97.4555 262.571 97.441C263.08 97.3852 263.494 97.2611 263.829 97.0957C263.831 97.0957 263.835 97.0936 263.837 97.0916C263.92 97.0502 263.996 97.0088 264.069 96.9634C264.073 96.9613 264.077 96.9571 264.081 96.9551C265.125 96.2975 265.247 95.2574 265.247 95.2574C265.247 95.2574 262.485 96.2417 261.484 92.8958C261.473 92.8545 261.461 92.8131 261.451 92.7718C261.401 92.5919 261.356 92.4016 261.316 92.199L261.308 92.1969ZM203.439 79.2065C204.275 76.5121 205.935 72.6266 208.034 69.8329C210.292 66.9586 212.414 65.8254 213.915 65.8067C213.958 65.8067 213.993 65.815 214.035 65.8171C214.167 65.8005 214.297 65.7881 214.421 65.7861C215.83 65.7695 216.558 66.7021 216.711 67.8539C216.742 68.0318 216.76 68.2137 216.762 68.3999C216.822 73.2242 207.488 78.8757 203.784 80.0275C203.784 80.0275 203.154 80.2591 203.257 79.9344L203.439 79.2086V79.2065ZM61.4416 80.9994C62.2811 78.3008 63.8899 74.405 65.9888 71.6092C68.2448 68.7349 70.3685 67.6017 71.8698 67.5851C72.1593 67.581 72.4115 67.6285 72.6452 67.6989C74.0658 67.7898 74.7317 68.9024 74.7462 70.1803C74.8061 74.9984 65.3478 80.3149 61.7704 81.8038C61.6401 81.8576 61.1025 82.1574 61.2162 81.7107L61.4416 80.9973V80.9994ZM179.28 64.9713C178.875 64.9507 178.507 64.8948 178.174 64.8204C176.981 64.657 176.154 64.2166 175.736 63.9043C174.704 63.1371 173.819 61.3443 174.983 60.0953C175.678 59.3488 176.609 59.3074 177.26 59.4253C178.002 59.5597 178.474 60.0146 178.807 60.4448C179.566 61.4208 179.733 62.8456 179.28 64.9693V64.9713Z" fill="white"/>
</svg>
