<svg width="142" height="68" viewBox="0 0 142 68" fill="none" xmlns="http://www.w3.org/2000/svg">
<path d="M43.0668 61.2868H26.5515V67.2375H43.0668V61.2868Z" fill="white"/>
<path d="M115.218 61.2867H98.7029V67.2375H115.218V61.2867Z" fill="white"/>
<path d="M48.1064 62.6625H49.6166C51.408 62.6625 52.6615 63.5374 52.6615 64.7224C52.6615 66.116 51.3845 67.0914 49.561 67.0914H48.1075V62.6625H48.1064ZM49.6487 66.4775C50.8861 66.4775 51.5759 65.9053 51.5759 64.8689C51.5759 63.9128 50.7567 63.2871 49.4476 63.2871H49.1182V66.4775H49.6487Z" fill="white"/>
<path d="M54.1567 67.0906V62.6617H57.3941V63.3345H55.1696V64.512H57.0893V65.1783H55.1696V66.4168H57.6358V67.0895H54.1578L54.1567 67.0906Z" fill="white"/>
<path d="M59.0016 63.8532C59.0016 63.0254 59.8454 62.6147 60.793 62.6147C61.2272 62.6147 61.8293 62.7024 62.2464 62.897L61.7566 63.5569C61.4272 63.3484 60.9609 63.2339 60.6165 63.2339C60.0775 63.2339 59.9181 63.5099 59.9181 63.712C59.9181 64.4992 62.3277 64.5195 62.3277 65.9195C62.3277 66.7804 61.4037 67.1376 60.4325 67.1376C59.7342 67.1376 59.1149 66.9558 58.7449 66.7344L59.316 66.0275C59.6775 66.3173 60.1834 66.512 60.6336 66.512C61.0839 66.512 61.4133 66.3237 61.4133 66.0007C61.4133 65.1195 59.0026 65.2339 59.0026 63.8542L59.0016 63.8532Z" fill="white"/>
<path d="M63.7266 62.6625H65.2367C67.0281 62.6625 68.2816 63.5374 68.2816 64.7224C68.2816 66.116 67.0046 67.0914 65.1811 67.0914H63.7276V62.6625H63.7266ZM65.2688 66.4775C66.5062 66.4775 67.196 65.9053 67.196 64.8689C67.196 63.9128 66.3768 63.2871 65.0677 63.2871H64.7383V66.4775H65.2688Z" fill="white"/>
<path d="M69.7756 67.0906V62.6617H73.013V63.3345H70.7885V64.512H72.7082V65.1783H70.7885V66.4168H73.2547V67.0895H69.7767L69.7756 67.0906Z" fill="white"/>
<path d="M78.4132 63.685L77.2891 64.2978L76.7993 63.685L78.8881 62.6625H79.3544V67.0914H78.4143V63.6861L78.4132 63.685Z" fill="white"/>
<path d="M81.1211 64.0689C81.1211 63.2347 81.8441 62.6155 82.936 62.6155C84.028 62.6155 84.6312 63.2486 84.6312 64.2443C84.6312 65.7309 83.3136 66.9363 81.5874 67.1587L81.4184 66.5256C82.4141 66.3769 83.2505 65.8122 83.5553 64.9983C83.258 65.1598 82.9125 65.2678 82.4869 65.2678C81.5147 65.2678 81.1211 64.6892 81.1211 64.07V64.0689ZM82.904 64.6882C83.1286 64.6882 83.4098 64.6347 83.659 64.5203C83.6676 64.4593 83.6676 64.3994 83.6676 64.332C83.6676 63.6925 83.3628 63.2155 82.7917 63.2155C82.366 63.2155 82.0847 63.485 82.0847 63.9149C82.0847 64.3117 82.3254 64.6892 82.904 64.6892V64.6882Z" fill="white"/>
<path d="M86.167 62.6956L88.7541 62.6282V63.348H86.9146L86.8419 64.2635C86.9381 64.2571 87.0429 64.2571 87.1392 64.2571C88.2953 64.2571 88.9702 64.7683 88.9702 65.6228C88.9702 66.5319 88.2397 67.1373 87.1392 67.1373C86.5531 67.1373 86.0547 66.9554 85.6611 66.6325L86.0868 66.1341C86.3435 66.3426 86.6814 66.4367 87.059 66.4367C87.6536 66.4367 88.0386 66.1405 88.0386 65.6902C88.0386 65.1587 87.5895 64.8485 86.8183 64.8485C86.5937 64.8485 86.1916 64.8753 85.967 64.9362L86.1681 62.6956H86.167Z" fill="white"/>
<path d="M93.0356 65.4017H93.6612V66.0412H93.0431L93.0505 67.0915H92.1832L92.1907 66.0412H90.15L89.8281 65.5707L92.2388 62.5964L93.0099 62.6638L93.0345 65.4028L93.0356 65.4017ZM92.1917 65.4017L92.2003 63.7397L90.8827 65.4017H92.1917Z" fill="white"/>
<path d="M80.1269 3.23942C79.514 2.53996 78.4884 2.05869 77.6723 1.96778C76.175 1.7988 74.9954 2.89183 74.8285 4.35491C74.6756 5.72174 75.4392 7.11851 77.1921 7.31637C77.898 7.39551 78.7108 7.29391 79.2402 7.0137L79.3889 5.695L77.0274 5.42763L77.1879 4.01374L81.1557 4.45972L80.76 7.97305C79.6563 8.61368 78.1761 8.92063 76.9547 8.78266C74.4478 8.50031 72.7868 6.44259 73.0467 4.13994C73.3034 1.8512 75.4082 0.206307 77.8296 0.4801C79.0648 0.619136 80.3632 1.26298 81.3878 2.30147L80.1269 3.23942Z" fill="white"/>
<path d="M70.1068 8.04199L70.1015 0.314819H68.3774L68.3828 8.04413C68.9539 8.03878 69.5282 8.03878 70.1068 8.04092" fill="white"/>
<path d="M88.4807 9.70077C88.4978 9.70398 88.5138 9.70612 88.531 9.70826C89.0326 9.78954 89.5288 9.87189 90.0208 9.95531L90.2315 8.51683L85.6476 7.84625L86.5727 1.51906L84.8658 1.2688L83.7332 9.01522C85.3492 9.22163 86.9363 9.45264 88.4807 9.70077Z" fill="white"/>
<path d="M94.156 10.7079L95.6543 3.01389L93.9602 2.68341L92.4597 10.387C93.034 10.4929 93.5998 10.5999 94.1549 10.7079" fill="white"/>
<path d="M98.1364 11.5283L99.2005 10.1636L102.721 11.0909L102.958 12.6438C103.611 12.8032 104.216 12.9572 104.779 13.0994L103.299 4.82144L101.865 4.44391L96.3257 11.1283L96.6497 11.2139C97.1567 11.3187 97.6519 11.4256 98.1353 11.5294M101.982 6.60538L102.052 6.62356L102.497 9.62245L100.118 8.99572L101.982 6.60538Z" fill="white"/>
<path d="M56.845 8.74078C57.3284 8.68837 57.8172 8.63811 58.3113 8.58998L58.0086 4.08309L58.0685 4.07881L60.5166 7.59962L60.9989 7.56646L62.9518 3.75047L63.0128 3.74619L63.3133 8.2103C63.8877 8.17929 64.4641 8.15041 65.0481 8.12795L64.524 0.332336L62.924 0.440356L60.6503 4.91944H60.6278L57.7626 0.786876L56.1145 0.898104L56.6418 8.75468L56.845 8.74078Z" fill="white"/>
<path d="M47.6834 10.063L48.0717 8.45551L51.6631 7.8491L52.5925 9.27368C53.2149 9.18598 53.8491 9.10042 54.4983 9.01807L49.6064 1.89838L48.1433 2.14329L45.8845 10.4009C46.461 10.2886 47.0653 10.1763 47.6845 10.064M49.139 4.06733L49.2096 4.0545L50.8524 6.6042L48.4257 7.01488L49.139 4.06733Z" fill="white"/>
<path d="M41.0527 11.4382L40.1693 8.44574L42.9575 7.62223L42.5361 6.19979L39.7501 7.02437L39.2988 5.49712L43.8805 4.14313L43.457 2.70892L37.2207 4.55061L39.3758 11.85C39.8741 11.7238 40.4388 11.5858 41.0538 11.4393" fill="white"/>
<path d="M63.9252 0C63.9252 0 63.923 0.00552672 63.9219 0.00884276C63.9219 0.00884276 63.923 0.00552672 63.9252 0Z" fill="white"/>
<path d="M138.511 33.328C139.27 33.3997 140.147 33.0403 140.764 32.0521C141.437 30.9067 141.952 29.7088 141.993 29.2693C142.058 28.5923 141.653 28.1901 141.055 28.1345C140.217 28.0554 139.035 28.6286 138.233 29.881C137.955 30.2564 137.263 31.1976 137.188 31.9954C137.119 32.7152 137.712 33.2532 138.51 33.3291" fill="white"/>
<path d="M43.5259 21.2878C41.7698 19.8739 38.4372 20.0386 36.0158 20.9809C32.8287 22.2215 30.1571 24.2311 26.6363 29.8802C23.9219 34.2342 19.8192 44.2522 16.5508 51.8404C15.2353 54.8938 13.5969 57.3558 12.9904 56.9622C12.3851 56.5686 12.3359 54.8852 12.5947 52.5976C12.9541 49.3912 15.2781 40.1271 17.9219 30.5134C20.7059 20.3948 19.7123 14.1906 18.5455 11.0334C17.8267 9.08372 15.7551 4.55223 11.1605 2.38434C9.983 1.82927 8.6921 1.43141 7.21512 1.27099V1.26564C7.10175 1.25601 7.00335 1.24746 6.90817 1.2389C6.88464 1.23676 6.86004 1.23462 6.83651 1.23355C6.39908 1.19826 6.09321 1.1865 5.35418 1.18757C1.06118 1.19505 0.0184149 2.58755 0.000233343 4.01854C-0.0126007 5.04099 0.508248 5.94686 0.508248 5.94686L0.531778 5.98322C0.542473 5.08805 1.20343 3.78753 4.66755 3.24315C10.1926 2.37472 12.2931 6.85915 12.2931 6.85915C12.3006 6.87626 12.306 6.8923 12.3124 6.90834C15.1947 12.0024 14.492 21.0985 12.9787 27.3733C11.8856 31.9037 8.09425 44.8479 7.64934 49.2564C7.49747 50.7623 6.51138 54.2745 8.152 57.4563C9.58728 60.2424 13.1477 59.79 14.4835 58.6296C18.2385 55.3686 21.6684 45.1741 23.4534 41.3646C27.4181 32.9005 30.6533 28.6161 33.5848 26.7626C37.1762 24.4921 40.1334 24.5124 41.4896 24.6322C43.4542 24.8033 43.9066 25.9819 43.9066 25.9819C43.9066 25.9819 45.6093 22.9637 43.5259 21.2878Z" fill="white"/>
<path d="M135.15 47.6854C135.147 47.6715 135.144 47.6576 135.141 47.6437C134.757 45.5464 135.207 43.2748 135.25 43.0673C135.418 42.4449 135.638 41.8331 135.902 41.231C136.61 39.6192 137.208 38.0353 137.826 37.0867C138.221 36.4813 138.119 35.6835 137.557 35.2321L137.055 34.8311C136.508 34.3915 135.733 34.4995 135.328 35.0728C134.37 36.4385 132.817 38.9112 131.955 41.6427C130.373 44.1368 127.279 48.5261 126.108 48.5421C125.838 48.4672 125.723 48.4309 125.714 47.817C125.7 46.7421 126.251 44.6213 126.914 42.385C130.317 32.0504 137.271 19.8077 137.261 19.0398C137.254 18.4645 136.903 18.1981 136.365 18.2056C135.56 18.2163 134.377 18.8837 133.624 20.1607C132.789 21.505 125.869 33.706 123.528 40.6567C122.41 42.5807 118.382 48.6384 117.004 48.6555C116.737 48.5828 116.62 48.5442 116.612 47.9304C116.599 46.8555 117.15 44.7347 117.81 42.5005C121.215 32.1637 128.167 19.9222 128.157 19.1532C128.152 18.5778 127.801 18.3126 127.264 18.3201C126.456 18.3308 125.276 18.9981 124.524 20.2751C123.655 21.6698 116.254 34.722 114.187 41.5069C113.988 42.0492 113.804 42.5967 113.639 43.1411C111.916 45.5785 109.587 48.1635 107.568 48.1881C106.056 48.2074 105.266 47.1956 105.066 44.2523C105.061 43.7625 105.096 43.2716 105.17 42.739V42.6983C107.984 42.1732 113.54 38.5861 113.494 34.9081C113.473 33.2739 112.269 31.6525 110.184 31.6792C106.081 31.7316 101.634 37.2642 101.013 42.7048C100.008 45.017 97.8546 48.9571 95.7209 49.0779C95.6632 49.0694 95.6044 49.0608 95.5541 49.0362C95.5231 49.0223 95.5038 48.9924 95.4782 48.9678C94.8546 47.6747 97.3423 41.6053 98.554 38.6535C99.9391 35.2877 100.142 34.7124 99.8984 34.2386C99.5466 33.5552 98.569 33.5445 95.7958 33.6065C95.2653 33.6183 94.6493 33.6322 94.0397 33.6332C94.4664 32.2097 94.3584 30.9488 93.7434 30.1541C93.1605 29.3991 92.2162 29.2055 91.3991 29.3959C90.4012 29.6269 89.4461 30.7434 89.2076 31.8814C88.9895 32.9241 89.2879 33.9701 90.1873 34.507C90.7948 34.8685 91.8579 34.8878 92.3712 34.8995C91.6868 37.0203 90.0483 39.5583 89.1627 41.0652C87.5959 43.7326 84.3852 48.6512 82.6601 48.1956C81.0623 47.7742 87.243 33.8493 87.2301 32.8268C87.2237 32.2557 86.8515 31.9734 86.32 31.9798C85.4612 31.9915 84.2024 32.7017 83.4013 34.0204C82.8024 35.0097 81.5639 37.3968 80.4933 40.0267C79.6548 41.6299 74.9618 48.8448 73.3672 48.864C73.0806 48.7849 72.9565 48.7475 72.948 48.0919C72.903 44.4128 77.5543 33.9712 77.5436 32.9487C77.5361 32.3776 77.165 32.0942 76.6324 32.1017C75.7747 32.1113 74.5148 32.8225 73.7137 34.1402C73.0806 35.1765 71.7116 37.7679 70.6079 40.5925C69.2999 42.7978 65.1887 48.925 63.7609 48.9421C63.4732 48.8651 63.3491 48.8255 63.3406 48.1314C63.3021 44.9828 69.6207 30.3691 71.6795 24.9884C74.7009 24.705 77.6816 24.4227 80.5019 24.3874C84.3863 24.3382 87.0483 24.7959 87.6772 25.9734C87.6408 23.1104 82.4783 22.1959 75.2025 22.2869L72.6667 22.3585L73.5758 19.935C73.7362 19.5254 73.8132 19.2366 73.8089 18.9521C73.8036 18.3778 73.4303 18.0965 72.8988 18.104C72.041 18.1137 70.7833 18.8259 69.9822 20.1853C69.7416 20.5575 69.3437 21.3778 68.7844 22.4911C66.5127 22.628 64.8368 22.735 63.2689 22.8109C62.085 22.8687 60.9631 22.9082 59.6936 22.9296C59.4989 22.9328 59.3021 22.936 59.1 22.9382C55.1771 22.9874 53.0477 22.6869 53.0338 21.5425L53.0306 21.3778C53.0306 21.3778 53.0306 21.3382 53.0701 21.2548L52.9899 21.3799C52.9899 21.3799 52.4691 22.2847 52.4819 23.3072C52.5001 24.7371 53.5418 26.2782 57.8337 26.2248C58.3931 26.2173 59.0166 26.1895 59.6936 26.1467C60.762 26.0782 61.9663 25.9702 63.2689 25.8387C64.5203 25.7125 65.8625 25.566 67.2678 25.4119L67.5138 25.4087C66.0999 28.6472 62.2978 36.6064 60.9235 40.8288C59.5984 43.0973 55.5589 49.0865 54.1118 49.1047C53.8241 49.0255 53.7011 48.9881 53.6937 48.3731C53.6605 45.7582 56.9439 37.0075 57.8968 34.6653C58.0155 34.3359 58.0936 34.0503 58.0904 33.8054C58.0765 32.7819 57.0893 32.3455 55.823 32.3605C52.9632 32.4782 48.4124 38.1358 44.8168 44.6427C46.8157 37.8289 48.6905 34.1273 48.6809 33.3102C48.6734 32.737 48.3033 32.4557 47.7707 32.4621C46.913 32.4739 45.6542 33.183 44.8136 34.5423C44.1515 35.6182 43.113 38.0706 42.1558 40.9411C40.7901 43.4085 37.112 49.0715 34.1206 49.1079C32.6084 49.1271 31.8191 48.1154 31.618 45.1753C31.6105 44.6844 31.6458 44.1946 31.7217 43.6609V43.6192C34.5356 43.0941 40.0906 39.508 40.0457 35.8289C40.0243 34.1947 38.819 32.5744 36.7334 32.6012C32.2779 32.6557 27.4127 39.1765 27.4854 45.0224C27.5378 49.0704 29.726 50.8833 32.8747 50.9228C36.2147 50.8833 38.7997 48.4576 40.7847 45.647C40.5173 46.7304 40.2906 47.8074 40.1259 48.8298V48.9924C40.1366 49.771 41.2542 50.8608 42.236 50.849C42.6874 50.8437 43.1323 50.5902 43.4114 49.9742C44.4745 46.6908 51.2905 36.0995 54.5781 34.0942C53.3001 36.4011 49.7076 43.478 49.76 47.6459C49.7825 49.4854 50.5343 50.8266 52.6209 50.7998C52.9054 50.7966 53.2338 50.7506 53.5995 50.7057C55.5246 50.4373 57.8262 47.8202 59.6337 45.247C59.4829 46.0331 59.3995 46.7785 59.408 47.4437C59.4315 49.3635 60.1834 50.7036 62.3096 50.6779L63.209 50.5838C65.1309 50.295 67.4069 47.7336 69.2068 45.1903C69.056 45.9635 68.9651 46.7026 68.9737 47.3635C68.9972 49.2833 69.7908 50.5838 71.8774 50.5592L72.8153 50.464C74.7757 50.1945 77.1115 47.509 78.9607 44.909C78.8078 45.771 78.6955 46.5486 78.7051 47.2844C78.7276 49.1646 79.4805 50.4629 81.565 50.4373C81.8516 50.433 82.535 50.433 82.8601 50.371C85.8547 49.8009 88.3146 45.8962 89.7103 43.3475C91.1563 40.708 92.6536 37.8834 93.7263 34.9476C94.2525 34.9519 94.8717 34.922 95.4963 34.969C96.7958 35.0674 92.4707 43.3197 91.9338 46.217C91.5916 48.0694 92.1338 49.4277 93.2311 50.095C93.7862 50.4319 95.5263 50.6918 96.5477 50.2619C98.4107 49.695 99.9893 47.5282 101.07 45.5839C101.585 48.5924 103.592 49.9667 106.328 50.0031C108.997 49.971 111.181 48.4138 112.963 46.3593C112.936 46.6662 112.916 46.9667 112.919 47.2459C112.942 49.0512 113.648 50.2726 115.606 50.248C115.876 50.2448 116.182 50.2031 116.489 50.1613C118.343 49.9057 120.551 47.3828 122.261 44.9325C122.103 45.7218 122.013 46.4726 122.019 47.1325C122.043 48.9378 122.749 50.1592 124.708 50.1346C124.977 50.1314 125.285 50.0897 125.59 50.0458C127.445 49.7924 129.648 47.2747 131.357 44.8267C131.357 44.8267 131.251 45.9614 131.55 47.202C131.597 47.4159 131.669 47.6694 131.773 47.94C131.787 47.9785 131.796 48.0181 131.811 48.0555C131.804 48.032 131.799 48.0116 131.792 47.9881C132.234 49.1015 133.249 50.4597 135.561 50.4116C135.612 50.4105 135.668 50.4116 135.716 50.4095C135.718 50.4095 135.72 50.4095 135.723 50.4095C135.723 50.4095 135.754 50.4052 135.804 50.3977C136.067 50.3688 136.281 50.3047 136.454 50.2191C136.455 50.2191 136.457 50.218 136.458 50.217C136.501 50.1956 136.541 50.1742 136.578 50.1506C136.58 50.1496 136.582 50.1474 136.585 50.1464C137.125 49.8063 137.188 49.2683 137.188 49.2683C137.188 49.2683 135.759 49.7774 135.241 48.0469C135.236 48.0255 135.23 48.0042 135.224 47.9828C135.199 47.8897 135.175 47.7913 135.155 47.6865L135.15 47.6854ZM105.22 40.9668C105.652 39.5733 106.511 37.5637 107.597 36.1188C108.765 34.6321 109.862 34.0461 110.638 34.0364C110.661 34.0364 110.679 34.0407 110.7 34.0418C110.769 34.0332 110.836 34.0268 110.9 34.0257C111.629 34.0172 112.005 34.4995 112.084 35.0952C112.1 35.1872 112.11 35.2813 112.111 35.3776C112.142 37.8727 107.314 40.7957 105.399 41.3914C105.399 41.3914 105.073 41.5112 105.126 41.3433L105.22 40.9679V40.9668ZM31.7784 41.8941C32.2126 40.4984 33.0447 38.4834 34.1303 37.0375C35.2971 35.5508 36.3955 34.9648 37.1719 34.9562C37.3217 34.9541 37.4521 34.9787 37.573 35.015C38.3077 35.0621 38.6521 35.6375 38.6596 36.2984C38.6906 38.7904 33.7987 41.5401 31.9485 42.3101C31.8811 42.3379 31.603 42.493 31.6618 42.262L31.7784 41.893V41.8941ZM92.7252 33.6043C92.5156 33.5937 92.3253 33.5648 92.1531 33.5263C91.536 33.4418 91.1082 33.214 90.8921 33.0525C90.3584 32.6557 89.9007 31.7284 90.5028 31.0825C90.8622 30.6964 91.3434 30.675 91.6803 30.7359C92.0643 30.8055 92.3081 31.0407 92.4803 31.2632C92.8728 31.768 92.9595 32.5049 92.7252 33.6033V33.6043Z" fill="white"/>
</svg>
