<svg width="58" height="43" viewBox="0 0 58 43" fill="none" xmlns="http://www.w3.org/2000/svg">
<path d="M54 34.8799C56.2091 34.8799 58 36.6707 58 38.8799C57.9999 41.0889 56.2091 42.8799 54 42.8799H4C1.79093 42.8799 0.000105139 41.0889 0 38.8799C0 36.6707 1.79086 34.8799 4 34.8799H54ZM54 17.4404C56.2091 17.4404 58 19.2313 58 21.4404C57.9998 23.6494 56.209 25.4404 54 25.4404H4C1.79097 25.4404 0.000184504 23.6494 0 21.4404C0 19.2313 1.79086 17.4404 4 17.4404H54ZM54 0C56.209 0 57.9997 1.79108 58 4C58 6.20914 56.2091 8 54 8H4C1.79086 8 0 6.20914 0 4C0.000262318 1.79108 1.79102 0 4 0H54Z" fill="white"/>
</svg>
