<svg width="39" height="38" viewBox="0 0 39 38" fill="none" xmlns="http://www.w3.org/2000/svg">
<path d="M19.0183 0C8.5146 0 0 8.38099 0 18.7199C0 29.0588 8.5146 37.4398 19.0183 37.4398C29.5221 37.4398 38.0367 29.0588 38.0367 18.7199C38.0367 8.38099 29.5221 0 19.0183 0ZM27.5799 17.5647C26.7222 21.0085 23.4226 24.5918 20.0167 23.7673C19.1734 23.5657 18.3741 23.1728 17.7998 22.582L17.1852 25.0619C16.3716 28.3239 14.8266 29.8974 14.4562 30.2375L14.3298 30.1895C14.1498 29.691 13.5401 27.604 14.3442 24.376L16.0892 17.3678C15.6699 16.7921 15.4459 15.9187 15.7188 14.8304C16.1821 12.9649 17.6294 12.326 18.5455 12.5475C19.4568 12.7679 20.0177 13.68 19.7928 14.5817L18.9255 18.0735C18.5407 19.6178 18.7015 20.985 20.1192 21.3261C22.4874 21.897 24.13 19.3304 24.7101 16.9994C25.5237 13.7375 23.7739 10.8496 20.8993 10.1542C17.5854 9.35335 13.6913 10.8835 12.7609 14.6109C12.4393 15.9112 12.6585 17.2972 13.609 18.1461C13.7459 18.2657 13.8139 18.4438 13.7746 18.6163L13.3994 20.1078C13.3266 20.4055 12.9897 20.5534 12.7169 20.4102C10.0462 19.0139 9.88536 16.0836 10.3678 14.1455C11.7424 8.6335 17.3709 6.3411 22.1418 7.49248C26.2838 8.49028 28.7841 12.7453 27.5808 17.5657L27.5799 17.5647Z" fill="white"/>
</svg>
