<svg width="57" height="46" viewBox="0 0 57 46" fill="none" xmlns="http://www.w3.org/2000/svg">
<path d="M14.875 0L23.25 7.5C16.5 13.5 13 18.875 12.75 23.625C16.1667 22.9583 19.2083 23.6667 21.875 25.75C24.625 27.75 26 30.5417 26 34.125C26 37.2083 24.9167 39.9167 22.75 42.25C20.5833 44.5 17.6667 45.625 14 45.625C10.1667 45.625 6.875 44.2083 4.125 41.375C1.375 38.5417 0 34.4583 0 29.125C0 23.375 1.45833 17.9167 4.375 12.75C7.375 7.58333 10.875 3.33333 14.875 0ZM45.375 0L53.75 7.5C47 13.5 43.5 18.875 43.25 23.625C46.6667 22.9583 49.7083 23.6667 52.375 25.75C55.125 27.75 56.5 30.5417 56.5 34.125C56.5 37.2083 55.4167 39.9167 53.25 42.25C51.0833 44.5 48.1667 45.625 44.5 45.625C40.6667 45.625 37.375 44.2083 34.625 41.375C31.875 38.5417 30.5 34.4583 30.5 29.125C30.5 23.375 31.9583 17.9167 34.875 12.75C37.875 7.58333 41.375 3.33333 45.375 0Z" fill="white"/>
</svg>
