<svg width="57" height="46" viewBox="0 0 57 46" fill="none" xmlns="http://www.w3.org/2000/svg">
<path d="M41.625 45.625L33.25 38.125C40 32.125 43.5 26.75 43.75 22C40.3333 22.6667 37.2917 21.9583 34.625 19.875C31.875 17.875 30.5 15.0833 30.5 11.5C30.5 8.41667 31.5833 5.70833 33.75 3.375C35.9167 1.125 38.8333 3.8147e-06 42.5 3.8147e-06C46.3333 3.8147e-06 49.625 1.41667 52.375 4.25C55.125 7.08333 56.5 11.1667 56.5 16.5C56.5 22.25 55.0417 27.7083 52.125 32.875C49.125 38.0417 45.625 42.2917 41.625 45.625ZM11.125 45.625L2.75 38.125C9.5 32.125 13 26.75 13.25 22C9.83333 22.6667 6.79166 21.9583 4.125 19.875C1.375 17.875 -3.8147e-06 15.0833 -3.8147e-06 11.5C-3.8147e-06 8.41667 1.08333 5.70833 3.25 3.375C5.41667 1.125 8.33333 3.8147e-06 12 3.8147e-06C15.8333 3.8147e-06 19.125 1.41667 21.875 4.25C24.625 7.08333 26 11.1667 26 16.5C26 22.25 24.5417 27.7083 21.625 32.875C18.625 38.0417 15.125 42.2917 11.125 45.625Z" fill="white"/>
</svg>
