<svg width="39" height="38" viewBox="0 0 39 38" fill="none" xmlns="http://www.w3.org/2000/svg">
<path d="M19.0183 0C8.5146 0 0 8.38099 0 18.7199C0 29.0588 8.5146 37.4398 19.0183 37.4398C29.5221 37.4398 38.0367 29.0588 38.0367 18.7199C38.0367 8.38099 29.5221 0 19.0183 0ZM28.0642 15.7557C28.0642 15.9573 27.8948 16.1232 27.69 16.1175C23.8495 16.0101 22.787 14.2679 22.787 14.2679V23.1728C22.787 26.6562 19.9182 29.48 16.3793 29.48C12.5991 29.48 9.58385 26.2585 10.0117 22.4529C10.3362 19.5679 12.7006 17.234 15.6307 16.9071C16.027 16.8628 16.4175 16.8543 16.7985 16.8788C16.9881 16.8911 17.1326 17.0522 17.1326 17.2387V19.8666C17.1326 20.0852 16.9373 20.2472 16.7172 20.2227C16.4683 20.1954 16.2098 20.1982 15.9456 20.234C14.617 20.4159 13.5487 21.4891 13.386 22.7997C13.1563 24.6549 14.6668 26.2237 16.5248 26.1379C18.1502 26.0626 19.3936 24.669 19.3936 23.0673V8.32069C19.3936 8.12188 19.5573 7.95982 19.7602 7.95982H22.7975C22.9928 7.95982 23.1622 8.10492 23.1747 8.29619C23.3135 10.3587 24.7283 12.6068 27.7072 12.7736C27.9053 12.7849 28.0633 12.9385 28.0633 13.1345V15.7557H28.0642Z" fill="white"/>
</svg>
