<svg width="39" height="38" viewBox="0 0 39 38" fill="none" xmlns="http://www.w3.org/2000/svg">
<path d="M21.6507 18.0243L17.0924 15.7818C16.5659 15.5236 15.9475 15.8996 15.9475 16.4781V20.963C15.9475 21.5416 16.5669 21.9175 17.0924 21.6584L21.6507 19.4159C22.2327 19.1285 22.2327 18.3107 21.6507 18.0243Z" fill="white"/>
<path d="M19.0184 0C8.51461 0 0 8.38099 0 18.7199C0 29.0588 8.51461 37.4398 19.0184 37.4398C29.5221 37.4398 38.0367 29.0588 38.0367 18.7199C38.0367 8.38099 29.5221 0 19.0184 0ZM30.1462 23.7654C30.1462 25.3597 28.8329 26.6514 27.2142 26.6514H10.8225C9.20287 26.6514 7.88954 25.3597 7.88954 23.7654V13.6743C7.88954 12.0811 9.20287 10.7883 10.8225 10.7883H27.2142C28.8329 10.7883 30.1462 12.0811 30.1462 13.6743V23.7654Z" fill="white"/>
</svg>
